<svg width="449" height="449" viewBox="0 0 449 449" fill="none" xmlns="http://www.w3.org/2000/svg">
<path d="M0 42C0 18.804 18.804 0 42 0H348C371.196 0 390 18.804 390 42V335.5L344 321C339.833 319.667 330.548 319.065 325 326C319 333.5 320.833 340.667 322 343.5L336.5 390H42C18.804 390 0 371.196 0 348V42Z" fill="#D9D9D9"/>
<path d="M0 42C0 18.804 18.804 0 42 0H348C371.196 0 390 18.804 390 42V335.5L344 321C339.833 319.667 330.548 319.065 325 326C319 333.5 320.833 340.667 322 343.5L336.5 390H42C18.804 390 0 371.196 0 348V42Z" fill="#CCFE02"/>
<path d="M261.956 155.122C292.157 186.819 295.211 190.548 295.211 194.786C295.211 197.668 288.255 206.313 271.287 224.281C258.053 238.18 246.176 250.385 244.988 251.064C241.594 252.928 236.166 250.894 233.96 246.995C231.585 242.419 233.62 239.537 256.187 215.636C266.537 204.957 274.851 195.464 274.851 194.617C274.851 193.769 266.537 184.277 256.187 173.598C246.006 162.75 236.336 152.07 234.809 149.698C232.264 145.799 232.264 145.12 234.809 141.222C239.559 133.933 243.461 135.797 261.956 155.122Z" fill="black"/>
<path d="M211.734 116.982C212.92 118.168 213.769 120.881 213.769 123.254C213.769 133.085 191.882 269.54 190.015 271.744C187.47 274.795 181.363 275.133 178.478 272.253C177.291 271.066 176.442 268.353 176.442 265.81C176.442 256.148 198.329 119.694 200.196 117.49C202.741 114.439 208.848 114.1 211.734 116.982Z" fill="black"/>
<path d="M154.384 140.374C156.251 142.238 157.778 144.442 157.778 145.29C157.778 147.662 150.652 156.139 131.988 175.632C122.826 185.124 115.36 193.6 115.36 194.447C115.36 195.464 123.674 204.957 134.024 215.636C144.204 226.484 153.876 237.163 155.402 239.537C157.948 243.436 157.948 244.113 155.402 248.012C150.652 255.301 146.749 253.436 128.255 233.943C98.563 202.754 95 198.685 95 194.617C95 192.413 98.3933 187.159 102.974 182.073C127.407 155.46 146.071 136.984 148.446 136.984C149.803 136.984 152.518 138.51 154.384 140.374Z" fill="black"/>
<path d="M333 332C333 332 331 333.5 331 337.628C331 339.492 338.976 364.749 348.476 393.565C364.596 441.536 366.461 446.282 370.533 447.639C377.5 449.5 379.526 446.791 385.294 427.637C393.27 401.533 395.475 396.277 399.377 394.073C401.414 393.056 412.442 389.327 423.979 385.768C447.903 378.649 449.503 374.991 448.751 369.495C448 364 443.323 363.731 394.627 347.458C365.783 337.966 340.502 330 338.636 330C334.5 330 333 332 333 332Z" fill="white"/>
</svg>