<svg width="573" height="139" viewBox="0 0 573 139" fill="none" xmlns="http://www.w3.org/2000/svg">
<path d="M139.74 67.6833C139.74 63.3736 139.52 60.3194 139.079 58.5209C138.637 56.7223 137.823 55.823 136.635 55.823C135.617 55.823 134.786 56.0097 134.141 56.383C133.496 56.7223 133.021 57.2822 132.716 58.0627C132.41 58.8093 132.207 59.5898 132.105 60.4043C132.037 61.1848 132.003 62.1859 132.003 63.4075V67.6833H139.74ZM135.668 95.069C131.867 95.069 128.559 94.4921 125.742 93.3383C122.959 92.1845 120.754 90.5726 119.125 88.5025C117.53 86.4325 116.359 84.1079 115.613 81.5289C114.866 78.9159 114.493 76.0144 114.493 72.8245C114.493 65.223 116.427 59.471 120.296 55.5685C124.164 51.666 129.577 49.7147 136.533 49.7147C143.219 49.7147 148.004 51.2927 150.888 54.4487C153.773 57.5707 155.215 62.61 155.215 69.5667V75.2169H131.952V76.1841C131.952 78.1863 132.156 79.8321 132.563 81.1216C133.004 82.4112 133.632 83.3614 134.446 83.9722C135.261 84.583 136.092 84.9902 136.941 85.1938C137.789 85.3975 138.824 85.4993 140.046 85.4993C141.234 85.4993 142.506 85.3466 143.863 85.0411C145.255 84.7357 146.646 84.2606 148.037 83.6159C149.463 82.9711 150.65 82.2076 151.601 81.3252L154.604 86.4664C153.348 88.5025 151.499 90.2162 149.056 91.6076C146.646 92.965 144.322 93.8812 142.082 94.3563C139.842 94.8314 137.704 95.069 135.668 95.069ZM182.719 89.4697L182.21 90.0296C181.871 90.4368 181.345 90.9119 180.632 91.4549C179.953 91.9978 179.156 92.5408 178.239 93.0838C177.357 93.6267 176.271 94.0848 174.982 94.4581C173.692 94.8653 172.369 95.069 171.011 95.069C161.849 95.069 157.268 90.5386 157.268 81.478C157.268 79.7133 157.59 78.1014 158.235 76.6422C158.879 75.1491 159.711 73.8935 160.729 72.8754C161.747 71.8574 162.969 70.9581 164.394 70.1776C165.819 69.3631 167.244 68.7353 168.67 68.2942C170.129 67.8191 171.656 67.4288 173.251 67.1234C174.846 66.818 176.271 66.6144 177.527 66.5126C178.782 66.4108 179.987 66.3599 181.141 66.3599V65.4436C181.141 63.3736 180.581 61.9144 179.461 61.066C178.375 60.2176 176.611 59.7934 174.167 59.7934C172.063 59.7934 169.874 60.0479 167.601 60.557C165.327 61.0321 163.546 61.609 162.256 62.2877L158.998 55.3649C161.306 53.8718 164.309 52.5653 168.008 51.4454C171.707 50.2916 175.474 49.7147 179.308 49.7147C182.702 49.7147 185.502 50.0541 187.707 50.7328C189.913 51.3775 191.695 52.4974 193.052 54.0923C194.443 55.6534 195.428 57.6555 196.004 60.0988C196.581 62.5082 196.87 65.5794 196.87 69.3122V90.0296L198.295 94H184.348L182.719 89.4697ZM178.698 86.1101C179.139 86.1101 179.546 86.0253 179.919 85.8556C180.326 85.652 180.632 85.4653 180.835 85.2957C181.039 85.092 181.141 84.9902 181.141 84.9902V72.7736C179.071 72.7736 177.425 73.3505 176.203 74.5043C174.982 75.6242 174.371 77.3718 174.371 79.7473C174.371 83.9891 175.813 86.1101 178.698 86.1101ZM216.767 95.069C213.577 95.069 210.353 94.543 207.096 93.491C203.838 92.4051 201.751 91.3531 200.835 90.335L202.158 82.1397C203.312 83.2595 205.229 84.2267 207.91 85.0411C210.625 85.8556 213.391 86.2628 216.207 86.2628C218.243 86.2628 219.635 86.0083 220.381 85.4993C221.162 84.9902 221.552 84.2776 221.552 83.3614C221.552 82.479 220.873 81.6985 219.516 81.0198C218.159 80.3072 215.953 79.4928 212.899 78.5765C204.992 76.201 201.038 71.2805 201.038 63.8147C201.038 60.7606 201.921 58.1476 203.685 55.9757C205.45 53.77 207.707 52.175 210.455 51.1909C213.204 50.2068 216.275 49.7147 219.669 49.7147C225.472 49.7147 229.747 50.7837 232.496 52.9216C233.107 53.4985 233.412 53.7869 233.412 53.7869L231.173 61.066C228.933 58.8602 225.845 57.7573 221.908 57.7573C218.685 57.7573 217.073 58.7075 217.073 60.6079C217.073 61.1508 217.191 61.609 217.429 61.9822C217.666 62.3216 218.057 62.627 218.6 62.8985C219.177 63.136 219.736 63.3397 220.279 63.5093C220.822 63.6451 221.586 63.8487 222.57 64.1202C223.554 64.3577 224.403 64.5783 225.115 64.7819C229.086 66.1054 231.97 67.9718 233.769 70.3812C235.567 72.7906 236.466 75.7938 236.466 79.3909C236.466 89.843 229.9 95.069 216.767 95.069ZM261.681 111.511C258.186 111.511 254.894 111.001 251.806 109.983C248.718 108.965 246.461 107.591 245.036 105.86L247.683 100.363C249.651 101.483 252.773 102.043 257.049 102.043C258.406 102.043 259.577 101.89 260.561 101.584C261.545 101.279 262.428 100.736 263.208 99.9556C263.989 99.209 264.583 98.1401 264.99 96.7487C265.397 95.3574 265.618 93.6437 265.652 91.6076V87.23L265.143 88.0444C264.803 88.5874 264.277 89.2491 263.565 90.0296C262.886 90.7762 262.105 91.5397 261.223 92.3202C260.341 93.0668 259.255 93.7116 257.965 94.2545C256.71 94.7975 255.42 95.069 254.097 95.069C249.04 95.069 245.477 93.6606 243.407 90.844C241.337 87.9935 240.302 83.2086 240.302 76.4895V58.4191L238.47 56.5866V50.7328H256.998V79.6964C256.998 81.2574 257.236 82.4112 257.711 83.1577C258.22 83.8704 259.221 84.2267 260.714 84.2267C261.155 84.2267 261.596 84.1588 262.037 84.0231C262.479 83.8534 262.903 83.6328 263.31 83.3614C263.751 83.0899 264.209 82.7505 264.684 82.3433V58.4191L261.885 56.5866V50.7328H281.279V88.0444C281.279 95.544 279.684 101.33 276.494 105.402C273.304 109.474 268.366 111.511 261.681 111.511Z" fill="#0C1115"/>
<path d="M293.277 94.9671L284.929 86.5682V84.7866L293.277 76.4386H295.211L303.916 84.7866V86.5682L295.211 94.9671H293.277ZM335.025 94C331.224 94 327.831 93.2025 324.845 91.6076V94H308.25V36.4291L305.196 34.5966V29.8627L321.536 27.3176H324.845V54.7032C325.388 54.0923 325.981 53.5154 326.626 52.9725C327.271 52.4295 328.051 51.9035 328.968 51.3945C329.884 50.8855 330.919 50.4783 332.073 50.1728C333.26 49.8674 334.516 49.7147 335.84 49.7147C341.439 49.7147 345.545 51.632 348.158 55.4667C350.805 59.3014 352.128 64.6122 352.128 71.3992C352.128 74.5891 351.772 77.5415 351.059 80.2563C350.347 82.9372 349.295 85.3126 347.903 87.3827C346.512 89.4527 344.714 91.0816 342.508 92.2693C340.336 93.4231 337.842 94 335.025 94ZM327.542 86.9245C332.09 86.9245 334.363 83.4462 334.363 76.4895V67.836C334.363 64.9176 333.82 62.6779 332.734 61.1169C331.682 59.522 330.325 58.7245 328.662 58.7245C327.407 58.7245 326.134 59.1826 324.845 60.0988V86.5682C325.354 86.704 325.829 86.8058 326.27 86.8736C326.711 86.9076 327.135 86.9245 327.542 86.9245ZM382.321 87.23C382.118 87.705 381.693 88.3328 381.049 89.1133C380.438 89.8939 379.623 90.7592 378.605 91.7094C377.587 92.6256 376.332 93.4061 374.839 94.0509C373.345 94.7296 371.835 95.069 370.308 95.069C365.523 95.069 362.096 93.6437 360.026 90.7931C357.99 87.9426 356.972 83.1917 356.972 76.5404V58.4191L355.19 56.5866V50.7328H373.668V79.7473C373.634 81.2743 373.888 82.4112 374.431 83.1577C374.974 83.8704 375.958 84.2267 377.384 84.2267C377.587 84.2267 377.774 84.2267 377.944 84.2267C378.113 84.1928 378.283 84.1588 378.453 84.1249C378.622 84.057 378.758 84.0061 378.86 83.9722C378.996 83.9382 379.148 83.8873 379.318 83.8195C379.488 83.7177 379.623 83.6328 379.725 83.565C379.827 83.4971 379.963 83.4123 380.132 83.3104C380.302 83.1747 380.421 83.0729 380.489 83.005C380.591 82.9372 380.726 82.8354 380.896 82.6996C381.1 82.5299 381.252 82.4112 381.354 82.3433V58.4191L378.605 56.5866V50.7328H397.999V94H383.899L382.321 87.23ZM405.002 94V61.066L401.948 59.1826V53.736L412.892 50.7328H421.393V94H405.002ZM412.383 46.0497L404.035 37.6508V35.8692L412.383 27.5212H414.317L423.021 35.8692V37.6508L414.317 46.0497H412.383ZM427.855 94V36.4291L424.801 34.5966V29.8627L441.141 27.3176H444.449V94H427.855ZM479.686 94L477.701 87.4336C477.43 87.9087 477.107 88.3837 476.734 88.8588C476.395 89.3339 475.835 89.9448 475.054 90.6913C474.274 91.404 473.442 92.0318 472.56 92.5747C471.678 93.1177 470.575 93.5928 469.251 94C467.928 94.4072 466.537 94.6108 465.077 94.6108C459.478 94.6108 455.372 92.6935 452.759 88.8588C450.146 85.0242 448.839 79.6964 448.839 72.8754C448.839 68.5996 449.45 64.7989 450.672 61.4732C451.894 58.1136 453.811 55.4158 456.424 53.3797C459.037 51.3436 462.193 50.3255 465.892 50.3255C468.098 50.3255 470.066 50.5631 471.797 51.0382C473.527 51.5133 475.02 52.0902 476.276 52.7689V37.3454L470.677 35.462V29.8627L488.696 27.3176H492.667V94H479.686ZM472.509 84.6339C473.12 84.6339 473.748 84.5321 474.393 84.3285C475.037 84.091 475.665 83.7686 476.276 83.3614V57.7573C475.224 57.5198 474.257 57.401 473.374 57.401C468.861 57.4349 466.587 60.9133 466.554 67.836V74.9624C466.554 78.1523 467.113 80.5617 468.233 82.1906C469.353 83.8195 470.778 84.6339 472.509 84.6339ZM522.405 67.6833C522.405 63.3736 522.184 60.3194 521.743 58.5209C521.302 56.7223 520.488 55.823 519.3 55.823C518.282 55.823 517.45 56.0097 516.806 56.383C516.161 56.7223 515.686 57.2822 515.38 58.0627C515.075 58.8093 514.871 59.5898 514.769 60.4043C514.702 61.1848 514.668 62.1859 514.668 63.4075V67.6833H522.405ZM518.333 95.069C514.532 95.069 511.223 94.4921 508.407 93.3383C505.624 92.1845 503.418 90.5726 501.789 88.5025C500.194 86.4325 499.024 84.1079 498.277 81.5289C497.53 78.9159 497.157 76.0144 497.157 72.8245C497.157 65.223 499.091 59.471 502.96 55.5685C506.829 51.666 512.241 49.7147 519.198 49.7147C525.883 49.7147 530.668 51.2927 533.553 54.4487C536.437 57.5707 537.879 62.61 537.879 69.5667V75.2169H514.617V76.1841C514.617 78.1863 514.82 79.8321 515.228 81.1216C515.669 82.4112 516.297 83.3614 517.111 83.9722C517.925 84.583 518.757 84.9902 519.605 85.1938C520.454 85.3975 521.489 85.4993 522.71 85.4993C523.898 85.4993 525.171 85.3466 526.528 85.0411C527.919 84.7357 529.311 84.2606 530.702 83.6159C532.127 82.9711 533.315 82.2076 534.265 81.3252L537.268 86.4664C536.013 88.5025 534.163 90.2162 531.72 91.6076C529.311 92.965 526.986 93.8812 524.746 94.3563C522.507 94.8314 520.369 95.069 518.333 95.069ZM559.835 94H543.393V61.066L540.339 59.1826V53.4306L551.283 50.7328H555.406L556.883 62.8476C558.274 54.5335 562.736 50.3764 570.27 50.3764C571.118 50.3764 572.001 50.5292 572.917 50.8346L571.186 68.9559C570.474 68.3111 568.913 67.9888 566.503 67.9888C563.042 67.9888 560.819 68.905 559.835 70.7375V94Z" fill="#CCFE02"/>
<rect x="17.3043" y="38.27" width="51.9131" height="48.9036" fill="#0C1115"/>
<path d="M8.87789 22.772C5.52987 23.4115 2.36995 26.0448 0.789982 29.4681C0 31.1985 0 31.4242 0 65.6192V100.04L1.05331 102.184C2.25709 104.629 4.40133 106.736 6.92175 107.902C8.65218 108.692 8.84028 108.692 41.3424 108.805C67.788 108.88 73.9574 108.805 73.8445 108.429C71.7379 102.748 70.4589 98.0837 70.647 96.7294C70.9103 94.7733 72.2269 93.4566 74.1831 93.1933C75.5373 93.0052 80.202 94.2842 85.8823 96.3908C86.2585 96.5037 86.3338 90.3343 86.2585 63.8887C86.1457 31.3866 86.1457 31.1985 85.3557 29.4681C84.1895 26.9477 82.0829 24.8034 79.6377 23.5996L77.4935 22.5463L44.0133 22.4711C25.5804 22.4711 9.78073 22.5839 8.87789 22.772ZM46.7594 48.39C47.0227 48.6534 47.2108 49.2552 47.2108 49.7819C47.2108 51.9638 42.3581 82.2464 41.9443 82.7354C41.38 83.4126 40.0258 83.4878 39.3862 82.8483C39.1229 82.585 38.9348 81.9831 38.9348 81.4188C38.9348 79.2746 43.7876 48.9919 44.2014 48.5029C44.7657 47.8258 46.1199 47.7505 46.7594 48.39ZM34.0445 53.5813C34.4583 53.9951 34.7968 54.4842 34.7968 54.6723C34.7968 55.1989 33.2169 57.0798 29.0789 61.4059C27.0475 63.5125 25.3923 65.3934 25.3923 65.5815C25.3923 65.8072 27.2356 67.9139 29.5303 70.2838C31.7874 72.6914 33.9316 75.0613 34.2702 75.588C34.8344 76.4532 34.8344 76.6037 34.2702 77.4689C33.2169 79.0865 32.3516 78.6727 28.2513 74.3466C21.6681 67.4248 20.8781 66.522 20.8781 65.6192C20.8781 65.1301 21.6305 63.964 22.6462 62.8354C28.0632 56.9294 32.2012 52.829 32.7278 52.829C33.0288 52.829 33.6307 53.1675 34.0445 53.5813ZM57.8944 56.8541C64.5904 63.8887 65.2676 64.7163 65.2676 65.6568C65.2676 66.2963 63.7252 68.2148 59.9634 72.2023C57.0292 75.287 54.3959 77.9955 54.1326 78.146C53.3802 78.5598 52.1764 78.1084 51.6874 77.2432C51.1607 76.2275 51.6122 75.588 56.6154 70.2838C58.9101 67.9139 60.7534 65.8072 60.7534 65.6192C60.7534 65.4311 58.9101 63.3244 56.6154 60.9545C54.3583 58.5469 52.2141 56.177 51.8755 55.6503C51.3112 54.7851 51.3112 54.6346 51.8755 53.7694C52.9288 52.1518 53.794 52.5656 57.8944 56.8541Z" fill="#CCFE02"/>
<path d="M73.6188 96.1652C73.3554 96.4286 73.1674 96.9552 73.1674 97.4066C73.1674 97.8204 74.9354 103.426 77.042 109.821C80.6158 120.467 81.0296 121.52 81.9324 121.821C83.3995 122.347 83.9262 121.633 85.2052 117.382C86.9732 111.589 87.4623 110.423 88.3275 109.933C88.7789 109.708 91.2241 108.88 93.7821 108.09C99.0863 106.51 99.8387 106.021 99.2744 104.479C98.9734 103.576 98.0706 103.2 87.2742 99.5885C80.8791 97.4819 75.274 95.7138 74.8602 95.7138C74.4088 95.7138 73.8821 95.9019 73.6188 96.1652Z" fill="#0C1115"/>
</svg>

